<mxfile host="app.diagrams.net" modified="2024-05-11T12:59:27.332Z" agent="Mozilla/5.0 (Windows NT 10.0; Win64; x64) AppleWebKit/537.36 (KHTML, like Gecko) Chrome/125.0.0.0 Safari/537.36 Edg/125.0.0.0" version="24.4.0" etag="wB1-37TFuEmPox38lqlq" type="github">
  <diagram name="Page-1" id="Jz9pFCQbmDfDRskEc_8y">
    <mxGraphModel>
      <root>
        <mxCell id="0" />
        <mxCell id="1" parent="0" />
      </root>
    </mxGraphModel>
  </diagram>
</mxfile>
